<?xml version="1.0" standalone="no"?>
<!DOCTYPE svg PUBLIC "-//W3C//DTD SVG 20010904//EN"
 "http://www.w3.org/TR/2001/REC-SVG-20010904/DTD/svg10.dtd">
<svg version="1.0" xmlns="http://www.w3.org/2000/svg"
 width="200.000000pt" height="200.000000pt" viewBox="0 0 200.000000 200.000000"
 preserveAspectRatio="xMidYMid meet">
<metadata>
Created by potrace 1.15, written by Peter Selinger 2001-2017
</metadata>
<g transform="translate(0.000000,200.000000) scale(0.100000,-0.100000)"
fill="#000000" stroke="none">
<path d="M280 1891 c-72 -22 -139 -81 -166 -147 -11 -27 -14 -134 -14 -549 l0
-515 78 0 77 0 -47 27 c-27 14 -48 29 -48 33 0 3 20 26 45 50 l45 44 72 -37
c188 -93 412 -59 368 58 -13 35 -52 51 -199 84 -72 17 -150 38 -173 49 -119
52 -159 171 -93 274 17 25 45 47 92 70 61 30 77 33 173 36 76 3 125 -1 171
-12 72 -19 169 -61 169 -73 -1 -4 -18 -27 -39 -50 l-39 -43 -57 26 c-41 19
-80 28 -140 32 -137 8 -195 -14 -195 -76 0 -51 36 -72 190 -108 165 -40 240
-72 276 -119 50 -66 44 -162 -13 -226 l-35 -39 136 0 136 0 0 340 0 340 75 0
75 0 2 -176 3 -176 110 94 c61 51 154 131 208 176 l97 82 95 0 c52 0 95 -3 94
-7 0 -5 -81 -77 -179 -162 l-180 -154 88 -96 c48 -53 120 -133 161 -179 l75
-82 63 0 63 0 0 498 c0 572 0 570 -76 646 -78 78 -53 76 -833 75 -377 0 -697
-4 -711 -8z"/>
<path d="M1262 882 l-62 -57 0 -97 0 -98 -550 0 -550 0 0 -172 c0 -193 8 -225
70 -286 71 -71 17 -67 813 -70 714 -2 717 -2 767 19 27 12 65 39 84 60 53 58
66 117 66 296 l0 153 -134 0 -134 0 -147 155 c-82 85 -151 155 -154 155 -3 -1
-34 -26 -69 -58z"/>
</g>
</svg>
