<?xml version="1.0" encoding="utf-8"?>
<!-- Generator: Adobe Illustrator 15.0.2, SVG Export Plug-In . SVG Version: 6.00 Build 0)  -->
<!DOCTYPE svg PUBLIC "-//W3C//DTD SVG 1.1//EN" "http://www.w3.org/Graphics/SVG/1.1/DTD/svg11.dtd">
<svg version="1.1" id="Layer_2" xmlns="http://www.w3.org/2000/svg" xmlns:xlink="http://www.w3.org/1999/xlink" x="0px" y="0px"
	 width="467px" height="156px" viewBox="0 0 467 156" enable-background="new 0 0 467 156" xml:space="preserve">
<g>
	<path fill="#FFFFFF" d="M246.858,17.112v12.708h15.885V17.112h-4.235v5.295h-5.296v-5.295H246.858z"/>
	<path fill="#FFFFFF" d="M256.655,33.526h-15.833c3.063,10.701,6.045,21.403,9.111,32.1c0.235,0.823,0.086,1.633-0.427,2.318h14.822
		c0.515,0,0.959-0.221,1.269-0.633c0.311-0.412,0.399-0.898,0.26-1.394L256.655,33.526z"/>
	<path fill="#BE8700" d="M262.743,29.821h-15.885V17.112h6.354v5.295h5.296v-5.295h4.235V29.821z M263.802,30.879V16.053h-6.354
		v5.296h-3.177v-5.296h-13.768H240.5l0.004,5.296h-3.176v-5.296h-0.003h-13.765v5.296h-3.177v-5.296h-6.354v14.827H263.802z"/>
	<g>
		<path fill="#BE8700" d="M265.598,67.312c-0.31,0.412-0.754,0.633-1.269,0.633h-14.822c0.513-0.685,0.662-1.495,0.427-2.318
			c-3.066-10.697-6.048-21.399-9.111-32.1h15.833l9.202,32.392C265.997,66.414,265.908,66.9,265.598,67.312 M338.993,78.005
			c0-0.269-0.167-0.402-0.292-0.467c-0.115-0.062-0.182-0.073-0.309-0.099c-19.889-4.172-39.888-7.74-72.418-9.005
			c0.171-0.137,0.326-0.299,0.466-0.484c0.517-0.686,0.667-1.498,0.432-2.323c-3.168-11.051-6.255-22.105-9.424-33.159h0.001
			h-37.066c-3.169,11.052-6.254,22.106-9.422,33.158c-0.235,0.826-0.086,1.638,0.432,2.323c0.139,0.186,0.289,0.348,0.45,0.485
			c-32.558,1.267-52.563,4.841-72.472,9.019c-0.08,0.016-0.11,0.024-0.184,0.057c-0.123,0.054-0.347,0.182-0.347,0.495
			c0,0.292,0.237,0.529,0.529,0.529c0.056,0,0.115-0.012,0.171-0.017c25.572-2.597,51.331-4.219,99.375-4.219
			c47.953,0,73.705,1.616,99.229,4.204c0.098,0.01,0.224,0.032,0.318,0.032C338.755,78.534,338.993,78.297,338.993,78.005"/>
	</g>
	<g>
		<rect x="357.663" y="79.347" fill="#BE8700" width="1.589" height="49.243"/>
		<g>
			<path fill="#BE8700" d="M358.458,129.404c0.438,0,0.794-0.363,0.794-0.813c0-0.448-0.355-0.814-0.794-0.814
				c-0.439,0-0.795,0.366-0.795,0.814C357.663,129.041,358.019,129.404,358.458,129.404"/>
			<path fill="#BE8700" d="M358.459,80.16c0.438,0,0.794-0.363,0.794-0.813c0-0.447-0.356-0.813-0.794-0.813
				c-0.438,0-0.795,0.365-0.795,0.813C357.664,79.797,358.021,80.16,358.459,80.16"/>
			<path fill="#BE8700" d="M460.667,111.084c-0.922,0-1.81,0.826-1.81,1.969c0,0.922,0.508,1.492,1.396,1.492
				c0.924,0,1.813-0.761,1.813-2.032C462.065,111.783,461.589,111.084,460.667,111.084 M458.508,97.042
				c1.143-3.431,1.46-4.319,1.874-5.464l-0.159-0.189c-1.461,0.127-3.431,0.729-4.002,0.953c-0.159,0.094-0.159,0.381,0,0.508
				l0.571,0.254c0.477,0.223,0.795,0.54,0.033,2.764l-5.051,15.026c-0.541,1.619-0.7,2.191-0.7,2.7s0.287,0.951,1.239,0.951
				c2.636,0,4.638-2.635,5.463-4.224c0-0.317-0.189-0.477-0.508-0.444c-1.46,1.651-2.953,3.208-3.652,3.208
				c-0.351,0-0.381-0.317-0.127-1.048L458.508,97.042z M450.694,97.042c1.143-3.431,1.46-4.319,1.874-5.464l-0.158-0.189
				c-1.462,0.127-3.433,0.729-4.003,0.953c-0.158,0.094-0.158,0.381,0,0.508l0.57,0.254c0.478,0.223,0.795,0.54,0.033,2.764
				l-5.052,15.026c-0.54,1.619-0.698,2.191-0.698,2.7s0.285,0.951,1.238,0.951c2.638,0,4.639-2.635,5.465-4.224
				c0-0.317-0.191-0.477-0.509-0.444c-1.46,1.651-2.954,3.208-3.652,3.208c-0.35,0-0.383-0.317-0.128-1.048L450.694,97.042z
				 M441.323,94.596c-1.239,0-1.686,1.304-1.686,2.002c0,0.539,0.288,1.176,1.114,1.176c0.952,0,1.65-0.985,1.65-1.971
				C442.402,95.104,442.054,94.596,441.323,94.596 M434.588,113.403c-0.158,0.35-0.063,0.635,0.127,0.857
				c0.159,0.19,0.35,0.284,0.509,0.284c2.191,0,5.464-2.858,5.94-3.779c0-0.286-0.158-0.508-0.477-0.54
				c-1.08,1.24-2.764,2.352-3.304,2.352c-0.253,0-0.223-0.381-0.096-0.699l3.781-9.022c0.382-0.922,0.382-1.206,0.19-1.396
				c-0.127-0.127-0.287-0.318-0.508-0.318c-1.049,0-3.495,1.175-5.243,3.177c-0.063,0.255,0.128,0.509,0.413,0.541
				c1.589-1.304,2.415-1.686,2.638-1.686c0.222,0,0.222,0.254,0.063,0.604L434.588,113.403z M415.147,110.512
				c-0.317,0.89-0.54,1.716-0.54,2.319c0,0.763,0.73,1.714,1.619,1.714c1.906,0,4.544-2.445,6.037-4.478
				c0.381-0.509,0.604-0.541,0.444-0.032c-0.254,0.824-0.539,1.843-0.539,2.701c0,0.983,1.11,1.809,1.778,1.809
				c1.271,0,3.78-1.109,6.067-3.874c2.446-2.954,3.462-5.782,3.462-7.562c0-0.794-0.223-1.969-1.238-1.969
				c-0.604,0-1.113,0.476-1.176,1.144c0.223,0.729,0.286,1.493,0.286,2.255c0,1.588-0.731,3.527-1.97,5.306
				c-1.303,1.875-2.986,3.05-3.938,3.05c-0.764,0-1.176-0.444-1.176-1.397c0-1.717,0.571-4.129,1.715-6.481
				c0.763-1.589,1.112-2.191,1.112-2.857c0-0.288-0.19-0.891-0.954-0.891c-0.571,0-1.27,0.666-1.492,1.716
				c-0.159,0.763-0.826,3.208-2.063,5.083c-1.113,1.684-3.56,4.828-4.989,4.828c-0.54,0-0.699-0.382-0.699-0.763
				c0-0.445,0.159-1.112,0.605-2.255l2.509-6.64c0.444-1.176-0.223-2.097-0.952-2.097c-1.971,0-4.036,2.097-5.021,3.526
				c-0.03,0.254,0.191,0.54,0.477,0.54c0.953-1.144,2.288-2.224,2.923-2.224c0.445,0,0.382,0.443,0.096,1.175L415.147,110.512z
				 M402.441,102.125c0.572,0,0.729,0.413,0.729,0.73c0,0.286-0.253,1.239-1.237,2.16c-1.177,1.111-2.16,1.717-4.257,2.353
				c0.381-0.923,1.112-2.385,2.352-3.717C401.171,102.412,401.997,102.125,402.441,102.125 M403.076,101.141
				c-0.92,0-2.159,0.255-3.811,1.525c-3.464,2.669-4.733,6.543-4.733,8.545c0,1.557,0.666,3.334,2.573,3.334
				c1.334,0,3.145-0.507,5.081-2.889c0.063-0.287-0.126-0.541-0.412-0.541c-1.398,1.208-2.191,1.843-3.335,1.843
				c-0.858,0-1.525-0.73-1.525-1.811c0-1.271,0.223-2.287,0.444-2.827c4.575-1.271,7.72-2.86,7.72-5.274
				C405.078,102.222,404.348,101.141,403.076,101.141 M376.045,108.669c0.254,1.652,0.635,4.861,0.698,5.847
				c0.127,0.063,0.285,0.094,0.413,0.094c0.159,0,0.286-0.031,0.381-0.094c0.604-1.05,1.208-1.938,1.905-2.955l4.258-6.067
				l0.19,1.175c0.413,2.572,0.826,5.21,1.049,7.848c0.095,0.063,0.254,0.094,0.381,0.094c0.158,0,0.286-0.031,0.381-0.094
				c2.097-3.273,4.161-6.513,6.354-9.753l4.923-7.243c0.826-1.208,1.971-3.304,3.559-3.59l0.729-0.126
				c0.225-0.128,0.193-0.668,0-0.763c-0.666,0.063-1.555,0.095-2.666,0.095c-0.89,0-1.843-0.032-2.893-0.095
				c-0.254,0.127-0.284,0.57-0.094,0.763l0.636,0.126c0.603,0.128,0.889,0.191,0.824,0.477c-0.03,0.317-0.412,0.921-1.111,2.097
				c-1.237,2.129-6.86,10.705-7.528,11.722c-1.175,1.779-1.397,2.097-1.587,2.191c-0.128-0.126-0.225-0.604-0.541-2.668
				l-0.604-4.097c-0.127-0.796,0.064-0.892,0.477-1.464c0.635-0.952,3.018-4.351,4.32-6.003c1.366-1.715,1.588-1.969,2.954-2.255
				l0.604-0.126c0.189-0.16,0.222-0.636,0-0.763c-0.668,0.063-1.717,0.095-2.67,0.095c-0.985,0-1.873-0.032-2.827-0.095
				c-0.285,0.095-0.348,0.603-0.127,0.763l0.795,0.126c0.477,0.064,0.89,0.349,0.666,0.73c-0.222,0.413-1.461,2.382-2.922,4.511
				l-1.079,1.589l-0.572,0.856l-0.794-6.003c-0.191-1.335,0.095-1.59,0.888-1.684l1.049-0.126c0.223-0.16,0.192-0.668,0-0.763
				c-0.73,0.063-1.842,0.095-3.113,0.095c-1.111,0-2.254-0.032-3.113-0.095c-0.316,0.095-0.316,0.57-0.126,0.763l0.73,0.126
				c1.017,0.191,1.271,0.571,1.461,1.906l1.081,7.242c0.126,0.857-0.063,1.143-0.509,1.78l-2.13,2.922
				c-1.555,2.128-1.777,2.478-2.033,2.636c-0.157-0.095-0.22-0.666-0.507-2.668l-1.715-12.008c-0.19-1.271,0.063-1.717,0.889-1.811
				l1.176-0.126c0.222-0.128,0.191-0.668-0.032-0.763c-1.079,0.063-2.127,0.095-3.271,0.095s-2.064-0.032-3.081-0.095
				c-0.286,0.127-0.316,0.57-0.097,0.763l0.667,0.126c1.304,0.254,1.271,0.73,1.494,2.224L376.045,108.669z"/>
		</g>
	</g>
	<g>
		<g>
			<path fill="#050000" d="M143.705,108.207v-7.53h-8.972v7.53h-1.487V92.519h1.487v6.926h8.972v-6.926h1.487v15.688H143.705z"/>
			<path fill="#050000" d="M155.788,108.207c0-0.93,0.024-1.859,0.14-2.533l-0.046-0.023c-0.558,1.511-2.069,2.743-4.091,2.743
				c-1.79,0-3.137-0.908-3.137-2.743c0-2.348,2.464-4.043,7.112-4.043v-1.023c0-1.882-0.675-2.928-2.742-2.928
				c-1.116,0-2.511,0.348-3.534,1.021l-0.163-1.324c1.093-0.512,2.417-0.885,3.974-0.885c3.068,0,3.928,1.582,3.928,3.72v4.438
				c0,1.188,0.023,2.534,0.046,3.58H155.788z M155.766,102.722c-4.625,0-5.625,1.488-5.625,2.626c0,1.14,0.791,1.837,1.999,1.837
				c2.185,0,3.626-2.185,3.626-4.299V102.722z"/>
			<path fill="#050000" d="M176.426,108.207v-7.508c0-1.858-0.442-3.065-2.232-3.065c-1.906,0-3.671,1.904-3.671,5.088v5.485h-1.464
				v-7.53c0-1.649-0.326-3.043-2.232-3.043c-2.022,0-3.649,2.09-3.649,5.088v5.485h-1.464v-11.55h1.488
				c0,0.788-0.069,1.928-0.209,2.671l0.046,0.024c0.651-1.768,2.185-2.905,4.137-2.905c2.743,0,3.231,2.021,3.231,2.859
				c0.394-1.093,1.65-2.859,4.067-2.859c2.162,0,3.417,1.115,3.417,3.741v8.019H176.426z"/>
			<path fill="#050000" d="M186.091,108.347c-1.533,0-2.58-0.14-3.742-0.419V91.241h1.464v6.066c0,0.627-0.069,1.509-0.209,2.091
				l0.046,0.022c0.65-1.858,2.208-2.952,4.044-2.952c2.719,0,4.276,1.838,4.276,5.439
				C191.972,106.093,189.624,108.347,186.091,108.347z M187.462,97.656c-2.486,0-3.648,2.904-3.648,4.974v4.206
				c0.72,0.255,1.487,0.349,2.417,0.349c2.533,0,4.206-1.511,4.206-5.138C190.438,99.307,189.508,97.656,187.462,97.656z"/>
			<path fill="#050000" d="M202.823,108.207c0-0.79,0.071-1.952,0.21-2.672l-0.048-0.024c-0.649,1.767-2.138,2.904-4.183,2.904
				c-2.672,0-3.486-1.648-3.486-3.718v-8.04h1.464v7.506c0,1.93,0.511,3.067,2.347,3.067c2.185,0,3.719-2.138,3.719-5.044v-5.529
				h1.463v11.55H202.823z"/>
			<path fill="#050000" d="M214.118,97.889c-2.625-0.419-3.881,1.694-3.881,5.718v4.601h-1.465v-11.55h1.487
				c0,0.813-0.093,1.997-0.302,3.021l0.047,0.023c0.441-1.72,1.649-3.533,4.183-3.232L214.118,97.889z"/>
			<path fill="#050000" d="M220.295,114.32c-2.906,0-4.788-1.209-4.788-3.395c0-1.487,0.929-2.557,2.045-3.137
				c-0.72-0.35-1.162-0.93-1.162-1.675c0-0.767,0.442-1.439,1.255-1.812c-1.163-0.696-1.72-1.883-1.72-3.394
				c0-2.417,1.883-4.44,4.975-4.44c0.603,0,1.068,0.07,1.672,0.188h3.928v1.16h-2.185c0.744,0.559,1.208,1.558,1.208,2.767
				c0,2.439-1.674,4.369-5.02,4.369c-0.582,0-1.255-0.092-1.696-0.211c-0.627,0.258-0.907,0.677-0.907,1.117
				c0,0.721,0.697,1.047,2.139,1.047h2.371c2.51,0,3.881,1.232,3.881,3.207C226.291,112.53,223.758,114.32,220.295,114.32z
				 M222.014,108.207h-3.253c-1.068,0.558-1.789,1.439-1.789,2.464c0,1.604,1.557,2.417,3.579,2.417c2.673,0,4.252-1.14,4.252-2.79
				C224.803,108.973,223.874,108.207,222.014,108.207z M220.806,97.608c-2.138,0-3.394,1.324-3.394,3.139
				c0,1.997,1.209,3.066,3.3,3.066c2.022,0,3.323-1.092,3.323-3.066C224.036,98.77,222.851,97.608,220.806,97.608z"/>
			<path fill="#050000" d="M237.841,101.887h-7.833c-0.139,3.74,1.279,5.274,3.975,5.274c1.209,0,2.51-0.325,3.348-0.744
				l0.139,1.302c-1.047,0.42-2.301,0.675-3.742,0.675c-3.439,0-5.275-1.86-5.275-5.928c0-3.438,1.859-5.997,4.996-5.997
				c3.139,0,4.439,2.163,4.439,4.648C237.887,101.281,237.887,101.562,237.841,101.887z M233.355,97.585
				c-1.721,0-2.928,1.231-3.254,3.162h6.229C236.376,98.888,235.238,97.585,233.355,97.585z"/>
			<path fill="#050000" d="M246.647,97.889c-2.627-0.419-3.881,1.694-3.881,5.718v4.601h-1.465v-11.55h1.487
				c0,0.813-0.094,1.997-0.302,3.021l0.047,0.023c0.441-1.72,1.649-3.533,4.183-3.232L246.647,97.889z"/>
			<path fill="#050000" d="M265.053,108.207v-7.53h-8.972v7.53h-1.487V92.519h1.487v6.926h8.972v-6.926h1.487v15.688H265.053z"/>
			<path fill="#050000" d="M278.508,108.207c0-0.79,0.068-1.952,0.21-2.672l-0.048-0.024c-0.65,1.767-2.139,2.904-4.183,2.904
				c-2.674,0-3.487-1.648-3.487-3.718v-8.04h1.465v7.506c0,1.93,0.513,3.067,2.348,3.067c2.185,0,3.718-2.138,3.718-5.044v-5.529
				h1.465v11.55H278.508z"/>
			<path fill="#050000" d="M291.987,108.207v-7.508c0-1.93-0.536-3.065-2.349-3.065c-2.185,0-3.719,2.137-3.719,5.042v5.531h-1.464
				v-11.55h1.487c0,0.788-0.07,1.951-0.208,2.671l0.045,0.024c0.651-1.768,2.139-2.905,4.184-2.905c2.674,0,3.487,1.648,3.487,3.718
				v8.042H291.987z"/>
			<path fill="#050000" d="M301.514,114.32c-2.904,0-4.787-1.209-4.787-3.395c0-1.487,0.929-2.557,2.046-3.137
				c-0.722-0.35-1.164-0.93-1.164-1.675c0-0.767,0.442-1.439,1.256-1.812c-1.161-0.696-1.72-1.883-1.72-3.394
				c0-2.417,1.883-4.44,4.974-4.44c0.604,0,1.068,0.07,1.673,0.188h3.928v1.16h-2.185c0.745,0.559,1.208,1.558,1.208,2.767
				c0,2.439-1.673,4.369-5.02,4.369c-0.581,0-1.255-0.092-1.696-0.211c-0.628,0.258-0.907,0.677-0.907,1.117
				c0,0.721,0.698,1.047,2.139,1.047h2.37c2.511,0,3.882,1.232,3.882,3.207C307.51,112.53,304.977,114.32,301.514,114.32z
				 M303.234,108.207h-3.254c-1.069,0.558-1.79,1.439-1.79,2.464c0,1.604,1.558,2.417,3.58,2.417c2.672,0,4.253-1.14,4.253-2.79
				C306.023,108.973,305.093,108.207,303.234,108.207z M302.025,97.608c-2.138,0-3.395,1.324-3.395,3.139
				c0,1.997,1.21,3.066,3.303,3.066c2.021,0,3.322-1.092,3.322-3.066C305.256,98.77,304.071,97.608,302.025,97.608z"/>
			<path fill="#050000" d="M316.967,108.207c0-0.93,0.025-1.859,0.14-2.533l-0.046-0.023c-0.558,1.511-2.069,2.743-4.091,2.743
				c-1.79,0-3.138-0.908-3.138-2.743c0-2.348,2.464-4.043,7.112-4.043v-1.023c0-1.882-0.674-2.928-2.742-2.928
				c-1.116,0-2.51,0.348-3.533,1.021l-0.163-1.324c1.093-0.512,2.418-0.885,3.975-0.885c3.069,0,3.928,1.582,3.928,3.72v4.438
				c0,1.188,0.022,2.534,0.048,3.58H316.967z M316.944,102.722c-4.625,0-5.625,1.488-5.625,2.626c0,1.14,0.791,1.837,2,1.837
				c2.186,0,3.625-2.185,3.625-4.299V102.722z"/>
			<path fill="#050000" d="M328.238,97.889c-2.626-0.419-3.881,1.694-3.881,5.718v4.601h-1.465v-11.55h1.488
				c0,0.813-0.093,1.997-0.302,3.021l0.046,0.023c0.441-1.72,1.649-3.533,4.183-3.232L328.238,97.889z"/>
			<path fill="#050000" d="M331.863,94.448c-0.581,0-1.046-0.464-1.046-1.046c0-0.581,0.465-1.046,1.046-1.046
				c0.582,0,1.046,0.44,1.046,1.046C332.909,93.984,332.445,94.448,331.863,94.448z M331.119,108.207v-11.55h1.464v11.55H331.119z"
				/>
			<path fill="#050000" d="M343.181,108.207c0-0.93,0.023-1.859,0.141-2.533l-0.047-0.023c-0.559,1.511-2.069,2.743-4.091,2.743
				c-1.789,0-3.139-0.908-3.139-2.743c0-2.348,2.465-4.043,7.113-4.043v-1.023c0-1.882-0.675-2.928-2.743-2.928
				c-1.114,0-2.51,0.348-3.532,1.021l-0.162-1.324c1.091-0.512,2.417-0.885,3.974-0.885c3.068,0,3.928,1.582,3.928,3.72v4.438
				c0,1.188,0.023,2.534,0.046,3.58H343.181z M343.158,102.722c-4.625,0-5.625,1.488-5.625,2.626c0,1.14,0.791,1.837,1.999,1.837
				c2.185,0,3.626-2.185,3.626-4.299V102.722z"/>
		</g>
		<g>
			<path fill="#050000" d="M185.831,129.154c-2.237,0-3.346-1.385-3.346-3.666c0-2.227,1.042-3.966,3.6-3.966
				c0.588,0,1.197,0.089,1.762,0.231l-0.078,0.665c-0.642-0.21-1.229-0.298-1.838-0.298c-1.916,0-2.68,1.495-2.68,3.246
				c0,2.004,0.886,3.166,2.791,3.166c0.609,0,1.352-0.188,1.828-0.431l0.077,0.63C187.359,128.988,186.64,129.154,185.831,129.154z"
				/>
			<path fill="#050000" d="M194.151,129.154c-1.462,0-2.392-0.898-2.392-2.825c0-1.54,0.93-2.857,2.58-2.857
				c1.285,0,2.404,0.708,2.404,2.757C196.743,127.836,195.768,129.154,194.151,129.154z M194.262,124.036
				c-0.909,0-1.772,0.698-1.772,2.237c0,1.464,0.643,2.305,1.783,2.305c0.909,0,1.75-0.697,1.75-2.313
				C196.023,124.878,195.425,124.036,194.262,124.036z"/>
			<path fill="#050000" d="M204.908,129.065v-3.577c0-0.92-0.254-1.464-1.118-1.464c-1.041,0-1.772,1.021-1.772,2.405v2.636h-0.697
				v-5.505h0.708c0,0.377-0.033,0.93-0.099,1.275l0.022,0.009c0.31-0.841,1.019-1.385,1.992-1.385c1.275,0,1.662,0.788,1.662,1.774
				v3.831H204.908z"/>
			<path fill="#050000" d="M212.174,129.143c-1.074,0-1.374-0.486-1.374-1.595v-3.435h-1.262v-0.553h1.251v-1.86l0.698-0.188v2.049
				h1.694v0.553h-1.694v3.092c0,1.051,0.188,1.316,0.875,1.316c0.288,0,0.576-0.031,0.819-0.1v0.621
				C212.895,129.098,212.518,129.143,212.174,129.143z"/>
			<path fill="#050000" d="M220.604,129.065c0-0.443,0.012-0.886,0.067-1.208l-0.022-0.011c-0.266,0.72-0.986,1.308-1.95,1.308
				c-0.853,0-1.495-0.432-1.495-1.308c0-1.119,1.175-1.928,3.39-1.928v-0.487c0-0.897-0.321-1.396-1.307-1.396
				c-0.532,0-1.196,0.167-1.684,0.487l-0.077-0.63c0.521-0.244,1.152-0.422,1.894-0.422c1.462,0,1.872,0.753,1.872,1.772v2.115
				c0,0.564,0.011,1.207,0.023,1.706H220.604z M220.594,126.451c-2.205,0-2.681,0.709-2.681,1.251c0,0.544,0.377,0.876,0.953,0.876
				c1.04,0,1.728-1.041,1.728-2.049V126.451z"/>
			<path fill="#050000" d="M226.787,122.509c-0.275,0-0.498-0.224-0.498-0.499c0-0.277,0.223-0.498,0.498-0.498
				c0.277,0,0.5,0.211,0.5,0.498C227.287,122.285,227.064,122.509,226.787,122.509z M226.434,129.065v-5.505h0.697v5.505H226.434z"
				/>
			<path fill="#050000" d="M235.851,129.065v-3.577c0-0.92-0.256-1.464-1.12-1.464c-1.04,0-1.772,1.021-1.772,2.405v2.636h-0.697
				v-5.505h0.71c0,0.377-0.034,0.93-0.101,1.275l0.022,0.009c0.31-0.841,1.019-1.385,1.993-1.385c1.272,0,1.661,0.788,1.661,1.774
				v3.831H235.851z"/>
			<path fill="#050000" d="M245.6,126.053h-3.732c-0.067,1.783,0.609,2.514,1.894,2.514c0.575,0,1.196-0.154,1.595-0.354l0.066,0.62
				c-0.498,0.2-1.098,0.322-1.782,0.322c-1.64,0-2.516-0.887-2.516-2.825c0-1.639,0.888-2.857,2.383-2.857
				c1.494,0,2.114,1.03,2.114,2.215C245.621,125.765,245.621,125.898,245.6,126.053z M243.462,124.004
				c-0.82,0-1.396,0.586-1.55,1.505h2.968C244.9,124.624,244.359,124.004,243.462,124.004z"/>
			<path fill="#050000" d="M252.801,124.148c-1.251-0.201-1.85,0.809-1.85,2.725v2.192h-0.697v-5.505h0.708
				c0,0.387-0.044,0.953-0.144,1.439l0.022,0.01c0.21-0.818,0.785-1.682,1.993-1.538L252.801,124.148z"/>
			<path fill="#050000" d="M258.962,129.131c-0.732,0-1.23-0.065-1.784-0.199v-7.951h0.698v2.89c0,0.3-0.033,0.72-0.101,0.998
				l0.021,0.01c0.312-0.886,1.054-1.406,1.929-1.406c1.295,0,2.037,0.874,2.037,2.592
				C261.763,128.057,260.645,129.131,258.962,129.131z M259.614,124.036c-1.185,0-1.738,1.384-1.738,2.37v2.006
				c0.343,0.121,0.709,0.166,1.15,0.166c1.208,0,2.007-0.721,2.007-2.447C261.033,124.824,260.589,124.036,259.614,124.036z"/>
			<path fill="#050000" d="M268.179,129.154c-1.461,0-2.392-0.898-2.392-2.825c0-1.54,0.931-2.857,2.58-2.857
				c1.284,0,2.403,0.708,2.403,2.757C270.771,127.836,269.796,129.154,268.179,129.154z M268.289,124.036
				c-0.907,0-1.771,0.698-1.771,2.237c0,1.464,0.642,2.305,1.783,2.305c0.907,0,1.75-0.697,1.75-2.313
				C270.051,124.878,269.452,124.036,268.289,124.036z"/>
			<path fill="#050000" d="M278.271,129.065c0-0.443,0.012-0.886,0.067-1.208l-0.022-0.011c-0.266,0.72-0.984,1.308-1.948,1.308
				c-0.854,0-1.495-0.432-1.495-1.308c0-1.119,1.173-1.928,3.389-1.928v-0.487c0-0.897-0.321-1.396-1.308-1.396
				c-0.531,0-1.195,0.167-1.683,0.487l-0.078-0.63c0.521-0.244,1.152-0.422,1.895-0.422c1.462,0,1.872,0.753,1.872,1.772v2.115
				c0,0.564,0.011,1.207,0.021,1.706H278.271z M278.261,126.451c-2.205,0-2.682,0.709-2.682,1.251c0,0.544,0.378,0.876,0.952,0.876
				c1.043,0,1.729-1.041,1.729-2.049V126.451z"/>
			<path fill="#050000" d="M286.647,124.148c-1.252-0.201-1.851,0.809-1.851,2.725v2.192h-0.696v-5.505h0.708
				c0,0.387-0.044,0.953-0.145,1.439l0.023,0.01c0.209-0.818,0.785-1.682,1.993-1.538L286.647,124.148z"/>
			<path fill="#050000" d="M294.2,129.065c0-0.354,0.033-0.92,0.101-1.264l-0.021-0.011c-0.3,0.831-1.032,1.363-1.917,1.363
				c-1.374,0-2.038-0.986-2.038-2.592c0-1.994,1.118-3.068,2.802-3.068c0.345,0,0.687,0.021,1.086,0.066v-2.58h0.697v8.085H294.2z
				 M294.212,124.191c-0.399-0.1-0.786-0.144-1.151-0.144c-1.208,0-1.994,0.72-1.994,2.446c0,1.308,0.442,2.096,1.406,2.096
				c1.185,0,1.739-1.385,1.739-2.371V124.191z"/>
		</g>
	</g>
</g>
</svg>
